<!DOCTYPE svg PUBLIC "-//W3C//DTD SVG 1.1//EN" "http://www.w3.org/Graphics/SVG/1.1/DTD/svg11.dtd">
<!-- Uploaded to: SVG Repo, www.svgrepo.com, Transformed by: SVG Repo Mixer Tools -->
<svg fill="#ffffff" width="252px" height="252px" viewBox="-0.24 -0.24 24.48 24.48" id="black-board" data-name="Flat Line" xmlns="http://www.w3.org/2000/svg" class="icon flat-line" stroke="#ffffff">
<g id="SVGRepo_bgCarrier" stroke-width="0" transform="translate(12,12), scale(0)">
<rect x="-0.24" y="-0.24" width="24.48" height="24.48" rx="0" fill="#7ed0ec" strokewidth="0"/>
</g>
<g id="SVGRepo_tracerCarrier" stroke-linecap="round" stroke-linejoin="round" stroke="#CCCCCC" stroke-width="0.24000000000000005"/>
<g id="SVGRepo_iconCarrier">
<rect id="secondary" x="3" y="4" width="18" height="12" rx="1" style="fill: #2ca9bc; stroke-width:0.36;"/>
<path id="primary" d="M18,21l-.67-4-.17-1m-2-12L15,3M6.84,16l-.17,1L6,21M9,3,8.83,4M12,17v3m8-4H4a1,1,0,0,1-1-1V5A1,1,0,0,1,4,4H20a1,1,0,0,1,1,1V15A1,1,0,0,1,20,16Z" style="fill: none; stroke: #000000; stroke-linecap: round; stroke-linejoin: round; stroke-width:0.36;"/>
</g>
</svg>